<?xml version="1.0" encoding="utf-8"?>
<!-- Generator: Adobe Illustrator 23.0.1, SVG Export Plug-In . SVG Version: 6.00 Build 0)  -->
<svg version="1.1" id="Layer_1" xmlns="http://www.w3.org/2000/svg" xmlns:xlink="http://www.w3.org/1999/xlink" x="0px" y="0px"
	 viewBox="0 0 500 500" style="enable-background:new 0 0 500 500;" xml:space="preserve">
<style type="text/css">
	.st0{fill:#FFCC00;}
	.st1{fill:#FFFFFF;}
	.st2{fill:#FFA900;}
</style>
<g>
	<rect x="273.14" y="211.01" class="st0" width="9.81" height="9.81"/>
	<rect x="273.14" y="201.21" class="st0" width="9.81" height="9.8"/>
	<rect x="263.34" y="220.82" class="st0" width="9.8" height="9.8"/>
	<rect x="263.34" y="211.01" class="st0" width="9.8" height="9.81"/>
	<rect x="263.34" y="201.21" class="st0" width="9.8" height="9.8"/>
	<rect x="263.34" y="191.4" class="st0" width="9.8" height="9.81"/>
	<rect x="253.54" y="230.62" class="st0" width="9.8" height="9.8"/>
	<rect x="253.54" y="220.82" class="st0" width="9.8" height="9.8"/>
	<rect x="253.54" y="211.01" class="st0" width="9.8" height="9.81"/>
	<rect x="253.54" y="201.21" class="st1" width="9.8" height="9.8"/>
	<rect x="253.54" y="191.4" class="st0" width="9.8" height="9.81"/>
	<rect x="253.54" y="181.6" class="st0" width="9.8" height="9.8"/>
	<rect x="243.73" y="230.62" class="st0" width="9.81" height="9.8"/>
	<rect x="243.73" y="220.82" class="st0" width="9.81" height="9.8"/>
	<rect x="243.73" y="211.01" class="st0" width="9.81" height="9.81"/>
	<rect x="243.73" y="201.21" class="st0" width="9.81" height="9.8"/>
	<rect x="243.73" y="191.4" class="st1" width="9.81" height="9.81"/>
	<rect x="243.73" y="181.6" class="st0" width="9.81" height="9.8"/>
	<rect x="233.93" y="230.62" class="st0" width="9.8" height="9.8"/>
	<rect x="233.93" y="220.82" class="st0" width="9.8" height="9.8"/>
	<rect x="233.93" y="211.01" class="st0" width="9.8" height="9.81"/>
	<rect x="233.93" y="201.21" class="st0" width="9.8" height="9.8"/>
	<rect x="233.93" y="191.4" class="st0" width="9.8" height="9.81"/>
	<rect x="233.93" y="181.6" class="st0" width="9.8" height="9.8"/>
	<rect x="224.12" y="230.62" class="st0" width="9.81" height="9.8"/>
	<rect x="224.12" y="220.82" class="st0" width="9.81" height="9.8"/>
	<rect x="224.12" y="211.01" class="st0" width="9.81" height="9.81"/>
	<rect x="224.12" y="201.21" class="st0" width="9.81" height="9.8"/>
	<rect x="224.12" y="191.4" class="st0" width="9.81" height="9.81"/>
	<rect x="224.12" y="181.6" class="st0" width="9.81" height="9.8"/>
	<rect x="214.32" y="230.62" class="st0" width="9.8" height="9.8"/>
	<rect x="214.32" y="220.82" class="st0" width="9.8" height="9.8"/>
	<rect x="214.32" y="211.01" class="st0" width="9.8" height="9.81"/>
	<rect x="214.32" y="201.21" class="st0" width="9.8" height="9.8"/>
	<rect x="214.32" y="191.4" class="st0" width="9.8" height="9.81"/>
	<rect x="214.32" y="181.6" class="st0" width="9.8" height="9.8"/>
	<rect x="204.52" y="220.82" class="st2" width="9.8" height="9.8"/>
	<rect x="204.52" y="211.01" class="st2" width="9.8" height="9.81"/>
	<rect x="204.52" y="201.21" class="st2" width="9.8" height="9.8"/>
	<rect x="204.52" y="191.4" class="st2" width="9.8" height="9.81"/>
	<rect x="194.71" y="230.62" class="st0" width="9.81" height="9.8"/>
	<rect x="194.71" y="220.82" class="st0" width="9.81" height="9.8"/>
	<rect x="194.71" y="211.01" class="st0" width="9.81" height="9.81"/>
	<rect x="194.71" y="201.21" class="st0" width="9.81" height="9.8"/>
	<rect x="194.71" y="191.4" class="st0" width="9.81" height="9.81"/>
	<rect x="194.71" y="181.6" class="st0" width="9.81" height="9.8"/>
	<rect x="184.91" y="230.62" class="st0" width="9.8" height="9.8"/>
	<rect x="184.91" y="220.82" class="st0" width="9.8" height="9.8"/>
	<rect x="184.91" y="211.01" class="st0" width="9.8" height="9.81"/>
	<rect x="184.91" y="201.21" class="st0" width="9.8" height="9.8"/>
	<rect x="184.91" y="191.4" class="st0" width="9.8" height="9.81"/>
	<rect x="184.91" y="181.6" class="st0" width="9.8" height="9.8"/>
</g>
</svg>
