<?xml version="1.0" encoding="utf-8"?>
<!-- Generator: Adobe Illustrator 23.0.1, SVG Export Plug-In . SVG Version: 6.00 Build 0)  -->
<svg version="1.1" id="Layer_1" xmlns="http://www.w3.org/2000/svg" xmlns:xlink="http://www.w3.org/1999/xlink" x="0px" y="0px"
	 viewBox="0 0 500 500" style="enable-background:new 0 0 500 500;" xml:space="preserve">
<style type="text/css">
	.st0{fill:#999999;}
	.st1{fill:#808080;}
	.st2{fill:#A55C00;}
	.st3{fill:#844502;}
</style>
<g id="XMLID_1_">
	<rect x="460.78" y="196.08" class="st0" width="9.81" height="9.8"/>
	<rect x="460.78" y="186.27" class="st0" width="9.81" height="9.81"/>
	<rect x="460.78" y="176.47" class="st0" width="9.81" height="9.8"/>
	<rect x="450.98" y="196.08" class="st0" width="9.8" height="9.8"/>
	<rect x="450.98" y="186.27" class="st0" width="9.8" height="9.81"/>
	<rect x="441.18" y="196.08" class="st0" width="9.8" height="9.8"/>
	<rect x="441.18" y="186.27" class="st0" width="9.8" height="9.81"/>
	<rect x="431.37" y="196.08" class="st0" width="9.81" height="9.8"/>
	<rect x="431.37" y="186.27" class="st0" width="9.81" height="9.81"/>
	<rect x="421.57" y="215.69" class="st1" width="9.8" height="9.8"/>
	<rect x="421.57" y="205.88" class="st1" width="9.8" height="9.81"/>
	<rect x="421.57" y="196.08" class="st0" width="9.8" height="9.8"/>
	<rect x="421.57" y="186.27" class="st0" width="9.8" height="9.81"/>
	<rect x="411.76" y="215.69" class="st1" width="9.81" height="9.8"/>
	<rect x="411.76" y="205.88" class="st1" width="9.81" height="9.81"/>
	<rect x="411.76" y="196.08" class="st0" width="9.81" height="9.8"/>
	<rect x="411.76" y="186.27" class="st0" width="9.81" height="9.81"/>
	<rect x="401.96" y="215.69" class="st1" width="9.8" height="9.8"/>
	<rect x="401.96" y="205.88" class="st1" width="9.8" height="9.81"/>
	<rect x="401.96" y="196.08" class="st0" width="9.8" height="9.8"/>
	<rect x="401.96" y="186.27" class="st0" width="9.8" height="9.81"/>
	<rect x="392.16" y="215.69" class="st1" width="9.8" height="9.8"/>
	<rect x="392.16" y="205.88" class="st1" width="9.8" height="9.81"/>
	<rect x="392.16" y="196.08" class="st0" width="9.8" height="9.8"/>
	<rect x="392.16" y="186.27" class="st0" width="9.8" height="9.81"/>
	<rect x="382.35" y="215.69" class="st1" width="9.81" height="9.8"/>
	<rect x="382.35" y="205.88" class="st1" width="9.81" height="9.81"/>
	<rect x="382.35" y="196.08" class="st0" width="9.81" height="9.8"/>
	<rect x="382.35" y="186.27" class="st0" width="9.81" height="9.81"/>
	<rect x="372.55" y="215.69" class="st1" width="9.8" height="9.8"/>
	<rect x="372.55" y="205.88" class="st1" width="9.8" height="9.81"/>
	<rect x="372.55" y="196.08" class="st0" width="9.8" height="9.8"/>
	<rect x="372.55" y="186.27" class="st0" width="9.8" height="9.81"/>
	<rect x="362.75" y="215.69" class="st1" width="9.8" height="9.8"/>
	<rect x="362.75" y="205.88" class="st1" width="9.8" height="9.81"/>
	<rect x="362.75" y="196.08" class="st0" width="9.8" height="9.8"/>
	<rect x="362.75" y="186.27" class="st0" width="9.8" height="9.81"/>
	<rect x="352.94" y="215.69" class="st1" width="9.81" height="9.8"/>
	<rect x="352.94" y="205.88" class="st1" width="9.81" height="9.81"/>
	<rect x="352.94" y="196.08" class="st0" width="9.81" height="9.8"/>
	<rect x="352.94" y="186.27" class="st0" width="9.81" height="9.81"/>
	<rect x="343.14" y="225.49" class="st2" width="9.8" height="9.8"/>
	<rect x="343.14" y="215.69" class="st2" width="9.8" height="9.8"/>
	<rect x="343.14" y="205.88" class="st2" width="9.8" height="9.81"/>
	<rect x="343.14" y="196.08" class="st0" width="9.8" height="9.8"/>
	<rect x="343.14" y="186.27" class="st0" width="9.8" height="9.81"/>
	<rect x="333.33" y="225.49" class="st3" width="9.81" height="9.8"/>
	<rect x="333.33" y="215.69" class="st3" width="9.81" height="9.8"/>
	<rect x="333.33" y="205.88" class="st3" width="9.81" height="9.81"/>
	<rect x="333.33" y="196.08" class="st0" width="9.81" height="9.8"/>
	<rect x="333.33" y="186.27" class="st0" width="9.81" height="9.81"/>
	<rect x="323.53" y="225.49" class="st2" width="9.8" height="9.8"/>
	<rect x="323.53" y="215.69" class="st2" width="9.8" height="9.8"/>
	<rect x="323.53" y="205.88" class="st2" width="9.8" height="9.81"/>
	<rect x="323.53" y="196.08" class="st0" width="9.8" height="9.8"/>
	<rect x="323.53" y="186.27" class="st0" width="9.8" height="9.81"/>
	<rect x="313.73" y="225.49" class="st3" width="9.8" height="9.8"/>
	<rect x="313.73" y="215.69" class="st3" width="9.8" height="9.8"/>
	<rect x="313.73" y="205.88" class="st3" width="9.8" height="9.81"/>
	<rect x="313.73" y="196.08" class="st0" width="9.8" height="9.8"/>
	<rect x="313.73" y="186.27" class="st0" width="9.8" height="9.81"/>
	<rect x="303.92" y="225.49" class="st2" width="9.81" height="9.8"/>
	<rect x="303.92" y="215.69" class="st2" width="9.81" height="9.8"/>
	<rect x="303.92" y="205.88" class="st2" width="9.81" height="9.81"/>
	<rect x="303.92" y="196.08" class="st0" width="9.81" height="9.8"/>
	<rect x="303.92" y="186.27" class="st0" width="9.81" height="9.81"/>
	<rect x="294.12" y="225.49" class="st3" width="9.8" height="9.8"/>
	<rect x="294.12" y="215.69" class="st3" width="9.8" height="9.8"/>
	<rect x="294.12" y="205.88" class="st3" width="9.8" height="9.81"/>
	<rect x="294.12" y="196.08" class="st0" width="9.8" height="9.8"/>
	<rect x="294.12" y="186.27" class="st0" width="9.8" height="9.81"/>
	<rect x="284.31" y="225.49" class="st2" width="9.81" height="9.8"/>
	<rect x="284.31" y="215.69" class="st2" width="9.81" height="9.8"/>
	<rect x="284.31" y="205.88" class="st2" width="9.81" height="9.81"/>
	<rect x="284.31" y="196.08" class="st0" width="9.81" height="9.8"/>
	<rect x="284.31" y="186.27" class="st0" width="9.81" height="9.81"/>
	<rect x="274.51" y="225.49" class="st3" width="9.8" height="9.8"/>
	<rect x="274.51" y="215.69" class="st3" width="9.8" height="9.8"/>
	<rect x="274.51" y="205.88" class="st3" width="9.8" height="9.81"/>
	<rect x="274.51" y="196.08" class="st0" width="9.8" height="9.8"/>
	<rect x="274.51" y="186.27" class="st0" width="9.8" height="9.81"/>
	<rect x="264.71" y="225.49" class="st2" width="9.8" height="9.8"/>
	<rect x="264.71" y="215.69" class="st2" width="9.8" height="9.8"/>
	<rect x="264.71" y="205.88" class="st2" width="9.8" height="9.81"/>
	<rect x="264.71" y="196.08" class="st0" width="9.8" height="9.8"/>
	<rect x="264.71" y="186.27" class="st0" width="9.8" height="9.81"/>
	<rect x="254.9" y="225.49" class="st3" width="9.81" height="9.8"/>
	<rect x="254.9" y="215.69" class="st3" width="9.81" height="9.8"/>
	<rect x="254.9" y="205.88" class="st3" width="9.81" height="9.81"/>
	<rect x="254.9" y="196.08" class="st0" width="9.81" height="9.8"/>
	<rect x="254.9" y="186.27" class="st0" width="9.81" height="9.81"/>
	<rect x="245.1" y="225.49" class="st2" width="9.8" height="9.8"/>
	<rect x="245.1" y="215.69" class="st2" width="9.8" height="9.8"/>
	<rect x="245.1" y="205.88" class="st2" width="9.8" height="9.81"/>
	<rect x="245.1" y="196.08" class="st0" width="9.8" height="9.8"/>
	<rect x="245.1" y="186.27" class="st0" width="9.8" height="9.81"/>
	<rect x="235.29" y="225.49" class="st3" width="9.81" height="9.8"/>
	<rect x="235.29" y="215.69" class="st3" width="9.81" height="9.8"/>
	<rect x="235.29" y="205.88" class="st3" width="9.81" height="9.81"/>
	<rect x="235.29" y="196.08" class="st0" width="9.81" height="9.8"/>
	<rect x="235.29" y="186.27" class="st0" width="9.81" height="9.81"/>
	<rect x="225.49" y="225.49" class="st2" width="9.8" height="9.8"/>
	<rect x="225.49" y="215.69" class="st2" width="9.8" height="9.8"/>
	<rect x="225.49" y="205.88" class="st2" width="9.8" height="9.81"/>
	<rect x="225.49" y="196.08" class="st0" width="9.8" height="9.8"/>
	<rect x="225.49" y="186.27" class="st0" width="9.8" height="9.81"/>
	<rect x="215.69" y="215.69" class="st0" width="9.8" height="9.8"/>
	<rect x="215.69" y="205.88" class="st0" width="9.8" height="9.81"/>
	<rect x="215.69" y="196.08" class="st0" width="9.8" height="9.8"/>
	<rect x="215.69" y="186.27" class="st0" width="9.8" height="9.81"/>
	<rect x="205.88" y="215.69" class="st0" width="9.81" height="9.8"/>
	<rect x="205.88" y="205.88" class="st0" width="9.81" height="9.81"/>
	<rect x="205.88" y="196.08" class="st0" width="9.81" height="9.8"/>
	<rect x="205.88" y="186.27" class="st0" width="9.81" height="9.81"/>
	<rect x="196.08" y="215.69" class="st0" width="9.8" height="9.8"/>
	<rect x="196.08" y="205.88" class="st0" width="9.8" height="9.81"/>
	<rect x="196.08" y="196.08" class="st0" width="9.8" height="9.8"/>
	<rect x="196.08" y="186.27" class="st0" width="9.8" height="9.81"/>
	<rect x="186.27" y="215.69" class="st0" width="9.81" height="9.8"/>
	<rect x="186.27" y="205.88" class="st0" width="9.81" height="9.81"/>
	<rect x="186.27" y="196.08" class="st0" width="9.81" height="9.8"/>
	<rect x="186.27" y="186.27" class="st0" width="9.81" height="9.81"/>
	<rect x="176.47" y="215.69" class="st0" width="9.8" height="9.8"/>
	<rect x="176.47" y="205.88" class="st0" width="9.8" height="9.81"/>
	<rect x="176.47" y="196.08" class="st0" width="9.8" height="9.8"/>
	<rect x="176.47" y="186.27" class="st0" width="9.8" height="9.81"/>
	<rect x="166.67" y="215.69" class="st0" width="9.8" height="9.8"/>
	<rect x="166.67" y="205.88" class="st0" width="9.8" height="9.81"/>
	<rect x="166.67" y="196.08" class="st0" width="9.8" height="9.8"/>
	<rect x="166.67" y="186.27" class="st0" width="9.8" height="9.81"/>
	<rect x="156.86" y="215.69" class="st0" width="9.81" height="9.8"/>
	<rect x="156.86" y="205.88" class="st0" width="9.81" height="9.81"/>
	<rect x="156.86" y="196.08" class="st0" width="9.81" height="9.8"/>
	<rect x="156.86" y="186.27" class="st0" width="9.81" height="9.81"/>
	<rect x="147.06" y="205.88" class="st0" width="9.8" height="9.81"/>
	<rect x="147.06" y="196.08" class="st0" width="9.8" height="9.8"/>
	<rect x="147.06" y="186.27" class="st0" width="9.8" height="9.81"/>
	<rect x="137.25" y="205.88" class="st2" width="9.81" height="9.81"/>
	<rect x="137.25" y="196.08" class="st2" width="9.81" height="9.8"/>
	<rect x="137.25" y="186.27" class="st2" width="9.81" height="9.81"/>
	<rect x="127.45" y="215.69" class="st2" width="9.8" height="9.8"/>
	<rect x="127.45" y="205.88" class="st2" width="9.8" height="9.81"/>
	<rect x="127.45" y="196.08" class="st2" width="9.8" height="9.8"/>
	<rect x="127.45" y="186.27" class="st2" width="9.8" height="9.81"/>
	<rect x="117.65" y="225.49" class="st2" width="9.8" height="9.8"/>
	<rect x="117.65" y="215.69" class="st2" width="9.8" height="9.8"/>
	<rect x="117.65" y="205.88" class="st2" width="9.8" height="9.81"/>
	<rect x="117.65" y="196.08" class="st2" width="9.8" height="9.8"/>
	<rect x="117.65" y="186.27" class="st2" width="9.8" height="9.81"/>
	<rect x="107.84" y="225.49" class="st2" width="9.81" height="9.8"/>
	<rect x="107.84" y="215.69" class="st2" width="9.81" height="9.8"/>
	<rect x="107.84" y="205.88" class="st2" width="9.81" height="9.81"/>
	<rect x="107.84" y="196.08" class="st2" width="9.81" height="9.8"/>
	<rect x="107.84" y="186.27" class="st2" width="9.81" height="9.81"/>
	<rect x="98.04" y="235.29" class="st2" width="9.8" height="9.81"/>
	<rect x="98.04" y="225.49" class="st2" width="9.8" height="9.8"/>
	<rect x="98.04" y="215.69" class="st2" width="9.8" height="9.8"/>
	<rect x="98.04" y="205.88" class="st2" width="9.8" height="9.81"/>
	<rect x="98.04" y="196.08" class="st2" width="9.8" height="9.8"/>
	<rect x="98.04" y="186.27" class="st2" width="9.8" height="9.81"/>
	<rect x="88.24" y="225.49" class="st2" width="9.8" height="9.8"/>
	<rect x="88.24" y="215.69" class="st2" width="9.8" height="9.8"/>
	<rect x="88.24" y="205.88" class="st2" width="9.8" height="9.81"/>
	<rect x="88.24" y="196.08" class="st2" width="9.8" height="9.8"/>
	<rect x="88.24" y="186.27" class="st2" width="9.8" height="9.81"/>
	<rect x="78.43" y="225.49" class="st2" width="9.81" height="9.8"/>
	<rect x="78.43" y="215.69" class="st2" width="9.81" height="9.8"/>
	<rect x="78.43" y="205.88" class="st2" width="9.81" height="9.81"/>
	<rect x="78.43" y="196.08" class="st2" width="9.81" height="9.8"/>
	<rect x="78.43" y="186.27" class="st2" width="9.81" height="9.81"/>
	<rect x="68.63" y="215.69" class="st2" width="9.8" height="9.8"/>
	<rect x="68.63" y="205.88" class="st2" width="9.8" height="9.81"/>
	<rect x="68.63" y="196.08" class="st2" width="9.8" height="9.8"/>
	<rect x="68.63" y="186.27" class="st2" width="9.8" height="9.81"/>
	<rect x="58.82" y="215.69" class="st2" width="9.81" height="9.8"/>
	<rect x="58.82" y="205.88" class="st2" width="9.81" height="9.81"/>
	<rect x="58.82" y="196.08" class="st2" width="9.81" height="9.8"/>
	<rect x="58.82" y="186.27" class="st2" width="9.81" height="9.81"/>
	<rect x="49.02" y="225.49" class="st2" width="9.8" height="9.8"/>
	<rect x="49.02" y="215.69" class="st2" width="9.8" height="9.8"/>
	<rect x="49.02" y="205.88" class="st2" width="9.8" height="9.81"/>
	<rect x="49.02" y="196.08" class="st2" width="9.8" height="9.8"/>
	<rect x="49.02" y="186.27" class="st2" width="9.8" height="9.81"/>
	<rect x="39.22" y="235.29" class="st2" width="9.8" height="9.81"/>
	<rect x="39.22" y="225.49" class="st2" width="9.8" height="9.8"/>
	<rect x="39.22" y="215.69" class="st2" width="9.8" height="9.8"/>
	<rect x="39.22" y="205.88" class="st2" width="9.8" height="9.81"/>
	<rect x="39.22" y="196.08" class="st2" width="9.8" height="9.8"/>
	<rect x="39.22" y="186.27" class="st2" width="9.8" height="9.81"/>
	<rect x="29.41" y="235.29" class="st2" width="9.81" height="9.81"/>
	<rect x="29.41" y="225.49" class="st2" width="9.81" height="9.8"/>
	<rect x="29.41" y="215.69" class="st2" width="9.81" height="9.8"/>
	<rect x="29.41" y="205.88" class="st2" width="9.81" height="9.81"/>
	<rect x="29.41" y="196.08" class="st2" width="9.81" height="9.8"/>
	<rect x="29.41" y="186.27" class="st2" width="9.81" height="9.81"/>
	<rect x="19.61" y="235.29" class="st2" width="9.8" height="9.81"/>
	<rect x="19.61" y="225.49" class="st2" width="9.8" height="9.8"/>
	<rect x="19.61" y="215.69" class="st2" width="9.8" height="9.8"/>
	<rect x="19.61" y="205.88" class="st2" width="9.8" height="9.81"/>
	<rect x="19.61" y="196.08" class="st2" width="9.8" height="9.8"/>
	<rect x="19.61" y="186.27" class="st2" width="9.8" height="9.81"/>
</g>
</svg>
