<?xml version="1.0" encoding="utf-8"?>
<!-- Generator: Adobe Illustrator 23.0.1, SVG Export Plug-In . SVG Version: 6.00 Build 0)  -->
<svg version="1.1" id="Layer_1" xmlns="http://www.w3.org/2000/svg" xmlns:xlink="http://www.w3.org/1999/xlink" x="0px" y="0px"
	 viewBox="0 0 500 500" style="enable-background:new 0 0 500 500;" xml:space="preserve">
<style type="text/css">
	.st0{fill:#FFCC99;}
</style>
<rect x="299.44" y="235.14" width="9.8" height="9.81"/>
<rect x="289.63" y="235.14" width="9.81" height="9.81"/>
<rect x="279.83" y="235.14" width="9.8" height="9.81"/>
<rect x="270.03" y="244.95" class="st0" width="9.8" height="9.8"/>
<rect x="270.03" y="235.14" width="9.8" height="9.81"/>
<rect x="260.22" y="254.75" width="9.81" height="9.8"/>
<rect x="260.22" y="244.95" width="9.81" height="9.8"/>
<rect x="260.22" y="235.14" width="9.81" height="9.81"/>
<rect x="250.42" y="254.75" class="st0" width="9.8" height="9.8"/>
<rect x="250.42" y="244.95" class="st0" width="9.8" height="9.8"/>
<rect x="240.61" y="254.75" width="9.81" height="9.8"/>
<rect x="240.61" y="244.95" width="9.81" height="9.8"/>
<rect x="230.81" y="254.75" width="9.8" height="9.8"/>
<rect x="230.81" y="244.95" width="9.8" height="9.8"/>
<rect x="221.01" y="254.75" width="9.8" height="9.8"/>
<rect x="221.01" y="244.95" width="9.8" height="9.8"/>
<rect x="211.2" y="254.75" width="9.81" height="9.8"/>
<rect x="211.2" y="244.95" width="9.81" height="9.8"/>
<rect x="201.4" y="254.75" width="9.8" height="9.8"/>
<rect x="201.4" y="244.95" width="9.8" height="9.8"/>
<rect x="191.59" y="254.75" width="9.81" height="9.8"/>
<rect x="191.59" y="244.95" width="9.81" height="9.8"/>
</svg>
