<?xml version="1.0" encoding="utf-8"?>
<!-- Generator: Adobe Illustrator 23.0.1, SVG Export Plug-In . SVG Version: 6.00 Build 0)  -->
<svg version="1.1" id="Layer_1" xmlns="http://www.w3.org/2000/svg" xmlns:xlink="http://www.w3.org/1999/xlink" x="0px" y="0px"
	 viewBox="0 0 500 500" style="enable-background:new 0 0 500 500;" xml:space="preserve">
<style type="text/css">
	.st0{fill:#FFA26D;}
	.st1{fill:#6E3712;}
	.st2{fill:#754C24;}
	.st3{fill:#FFB58A;}
	.st4{fill:#FFFFFF;}
	.st5{fill:#0071BC;}
</style>
<g>
	<g id="XMLID_1_">
		<g>
			<rect x="313.74" y="261.87" class="st0" width="9.8" height="9.8"/>
			<rect x="313.74" y="252.06" class="st0" width="9.8" height="9.81"/>
			<rect x="313.74" y="242.26" class="st0" width="9.8" height="9.8"/>
			<rect x="313.74" y="232.45" class="st0" width="9.8" height="9.81"/>
			<rect x="313.74" y="222.65" class="st0" width="9.8" height="9.8"/>
			<rect x="313.74" y="212.85" class="st1" width="9.8" height="9.8"/>
			<rect x="313.74" y="203.04" class="st1" width="9.8" height="9.81"/>
			<rect x="313.74" y="193.24" class="st1" width="9.8" height="9.8"/>
			<rect x="313.74" y="183.43" class="st1" width="9.8" height="9.81"/>
			<rect x="313.74" y="173.63" class="st2" width="9.8" height="9.8"/>
			<rect x="303.93" y="271.67" class="st0" width="9.8" height="9.8"/>
			<rect x="303.93" y="261.87" class="st0" width="9.8" height="9.8"/>
			<rect x="303.93" y="252.06" class="st3" width="9.8" height="9.81"/>
			<rect x="303.93" y="242.26" class="st3" width="9.8" height="9.8"/>
			<rect x="303.93" y="232.45" class="st3" width="9.8" height="9.81"/>
			<rect x="303.93" y="222.65" class="st3" width="9.8" height="9.8"/>
			<rect x="303.93" y="212.85" class="st2" width="9.8" height="9.8"/>
			<rect x="303.93" y="203.04" class="st2" width="9.8" height="9.81"/>
			<rect x="303.93" y="193.24" class="st2" width="9.8" height="9.8"/>
			<rect x="303.93" y="183.43" class="st2" width="9.8" height="9.81"/>
			<rect x="303.93" y="173.63" class="st2" width="9.8" height="9.8"/>
			<rect x="303.93" y="163.83" class="st2" width="9.8" height="9.8"/>
			<rect x="294.13" y="271.67" class="st0" width="9.81" height="9.8"/>
			<rect x="294.13" y="261.87" class="st3" width="9.81" height="9.8"/>
			<rect x="294.13" y="252.06" class="st3" width="9.81" height="9.81"/>
			<rect x="294.13" y="242.26" class="st3" width="9.81" height="9.8"/>
			<rect x="294.13" y="232.45" class="st3" width="9.81" height="9.81"/>
			<rect x="294.13" y="222.65" class="st3" width="9.81" height="9.8"/>
			<rect x="294.13" y="212.85" class="st2" width="9.81" height="9.8"/>
			<rect x="294.13" y="203.04" class="st2" width="9.81" height="9.81"/>
			<rect x="294.13" y="193.24" class="st2" width="9.81" height="9.8"/>
			<rect x="294.13" y="183.43" class="st2" width="9.81" height="9.81"/>
			<rect x="294.13" y="173.63" class="st2" width="9.81" height="9.8"/>
			<rect x="294.13" y="163.83" class="st2" width="9.81" height="9.8"/>
			<rect x="284.33" y="271.67" class="st0" width="9.8" height="9.8"/>
			<rect x="284.33" y="261.87" class="st3" width="9.8" height="9.8"/>
			<rect x="284.33" y="252.06" class="st3" width="9.8" height="9.81"/>
			<rect x="284.33" y="242.26" class="st3" width="9.8" height="9.8"/>
			<rect x="284.33" y="232.45" class="st4" width="9.8" height="9.81"/>
			<rect x="284.33" y="222.65" class="st4" width="9.8" height="9.8"/>
			<rect x="284.33" y="212.85" class="st3" width="9.8" height="9.8"/>
			<rect x="284.33" y="203.04" class="st2" width="9.8" height="9.81"/>
			<rect x="284.33" y="193.24" class="st2" width="9.8" height="9.8"/>
			<rect x="284.33" y="183.43" class="st2" width="9.8" height="9.81"/>
			<rect x="284.33" y="173.63" class="st2" width="9.8" height="9.8"/>
			<rect x="284.33" y="163.83" class="st2" width="9.8" height="9.8"/>
			<rect x="274.52" y="271.67" class="st0" width="9.81" height="9.8"/>
			<rect x="274.52" y="261.87" class="st3" width="9.81" height="9.8"/>
			<rect x="274.52" y="252.06" class="st3" width="9.81" height="9.81"/>
			<rect x="274.52" y="242.26" class="st3" width="9.81" height="9.8"/>
			<rect x="274.52" y="232.45" class="st5" width="9.81" height="9.81"/>
			<rect x="274.52" y="222.65" class="st5" width="9.81" height="9.8"/>
			<rect x="274.52" y="212.85" class="st3" width="9.81" height="9.8"/>
			<rect x="274.52" y="203.04" class="st2" width="9.81" height="9.81"/>
			<rect x="274.52" y="193.24" class="st2" width="9.81" height="9.8"/>
			<rect x="274.52" y="183.43" class="st2" width="9.81" height="9.81"/>
			<rect x="274.52" y="173.63" class="st2" width="9.81" height="9.8"/>
			<rect x="274.52" y="163.83" class="st2" width="9.81" height="9.8"/>
			<rect x="264.71" y="271.67" class="st0" width="9.8" height="9.8"/>
			<rect x="264.71" y="261.87" class="st3" width="9.8" height="9.8"/>
			<rect x="264.71" y="252.06" class="st3" width="9.8" height="9.81"/>
			<rect x="264.71" y="242.26" class="st3" width="9.8" height="9.8"/>
			<rect x="264.71" y="232.45" class="st3" width="9.8" height="9.81"/>
			<rect x="264.71" y="222.65" class="st3" width="9.8" height="9.8"/>
			<rect x="264.71" y="212.85" class="st3" width="9.8" height="9.8"/>
			<rect x="264.71" y="203.04" class="st2" width="9.8" height="9.81"/>
			<rect x="264.71" y="193.24" class="st2" width="9.8" height="9.8"/>
			<rect x="264.71" y="183.43" class="st2" width="9.8" height="9.81"/>
			<rect x="264.71" y="173.63" class="st2" width="9.8" height="9.8"/>
			<rect x="264.71" y="163.83" class="st2" width="9.8" height="9.8"/>
			<rect x="254.92" y="271.67" class="st3" width="9.8" height="9.8"/>
			<rect x="254.92" y="261.87" class="st3" width="9.8" height="9.8"/>
			<rect x="254.92" y="252.06" class="st3" width="9.8" height="9.81"/>
			<rect x="254.92" y="242.26" class="st3" width="9.8" height="9.8"/>
			<rect x="254.92" y="232.45" class="st3" width="9.8" height="9.81"/>
			<rect x="254.92" y="222.65" class="st3" width="9.8" height="9.8"/>
			<rect x="254.92" y="212.85" class="st3" width="9.8" height="9.8"/>
			<rect x="254.92" y="203.04" class="st2" width="9.8" height="9.81"/>
			<rect x="254.92" y="193.24" class="st2" width="9.8" height="9.8"/>
			<rect x="254.92" y="183.43" class="st2" width="9.8" height="9.81"/>
			<rect x="254.92" y="173.63" class="st2" width="9.8" height="9.8"/>
			<rect x="254.92" y="163.83" class="st2" width="9.8" height="9.8"/>
			<rect x="245.11" y="271.67" class="st3" width="9.81" height="9.8"/>
			<rect x="245.11" y="261.87" class="st3" width="9.81" height="9.8"/>
			<rect x="245.11" y="252.06" class="st3" width="9.81" height="9.81"/>
			<rect x="245.11" y="242.26" class="st3" width="9.81" height="9.8"/>
			<rect x="245.11" y="232.45" class="st3" width="9.81" height="9.81"/>
			<rect x="245.11" y="222.65" class="st3" width="9.81" height="9.8"/>
			<rect x="245.11" y="212.85" class="st3" width="9.81" height="9.8"/>
			<rect x="245.11" y="203.04" class="st2" width="9.81" height="9.81"/>
			<rect x="245.11" y="193.24" class="st2" width="9.81" height="9.8"/>
			<rect x="245.11" y="183.43" class="st2" width="9.81" height="9.81"/>
			<rect x="245.11" y="173.63" class="st2" width="9.81" height="9.8"/>
			<rect x="245.11" y="163.83" class="st2" width="9.81" height="9.8"/>
			<rect x="235.31" y="271.67" class="st3" width="9.8" height="9.8"/>
			<rect x="235.31" y="261.87" class="st3" width="9.8" height="9.8"/>
			<rect x="235.31" y="252.06" class="st3" width="9.8" height="9.81"/>
			<rect x="235.31" y="242.26" class="st3" width="9.8" height="9.8"/>
			<rect x="235.31" y="232.45" class="st3" width="9.8" height="9.81"/>
			<rect x="235.31" y="222.65" class="st3" width="9.8" height="9.8"/>
			<rect x="235.31" y="212.85" class="st3" width="9.8" height="9.8"/>
			<rect x="235.31" y="203.04" class="st2" width="9.8" height="9.81"/>
			<rect x="235.31" y="193.24" class="st2" width="9.8" height="9.8"/>
			<rect x="235.31" y="183.43" class="st2" width="9.8" height="9.81"/>
			<rect x="235.31" y="173.63" class="st2" width="9.8" height="9.8"/>
			<rect x="235.31" y="163.83" class="st2" width="9.8" height="9.8"/>
			<rect x="225.5" y="271.67" class="st3" width="9.81" height="9.8"/>
			<rect x="225.5" y="261.87" class="st3" width="9.81" height="9.8"/>
			<rect x="225.5" y="252.06" class="st3" width="9.81" height="9.81"/>
			<rect x="225.5" y="242.26" class="st3" width="9.81" height="9.8"/>
			<rect x="225.5" y="232.45" class="st3" width="9.81" height="9.81"/>
			<rect x="225.5" y="222.65" class="st3" width="9.81" height="9.8"/>
			<rect x="225.5" y="212.85" class="st3" width="9.81" height="9.8"/>
			<rect x="225.5" y="203.04" class="st2" width="9.81" height="9.81"/>
			<rect x="225.5" y="193.24" class="st2" width="9.81" height="9.8"/>
			<rect x="225.5" y="183.43" class="st2" width="9.81" height="9.81"/>
			<rect x="225.5" y="173.63" class="st2" width="9.81" height="9.8"/>
			<rect x="225.5" y="163.83" class="st2" width="9.81" height="9.8"/>
			<rect x="215.7" y="271.67" class="st3" width="9.8" height="9.8"/>
			<rect x="215.7" y="261.87" class="st3" width="9.8" height="9.8"/>
			<rect x="215.7" y="252.06" class="st3" width="9.8" height="9.81"/>
			<rect x="215.7" y="242.26" class="st3" width="9.8" height="9.8"/>
			<rect x="215.7" y="232.45" class="st5" width="9.8" height="9.81"/>
			<rect x="215.7" y="222.65" class="st5" width="9.8" height="9.8"/>
			<rect x="215.7" y="212.85" class="st3" width="9.8" height="9.8"/>
			<rect x="215.7" y="203.04" class="st2" width="9.8" height="9.81"/>
			<rect x="215.7" y="193.24" class="st2" width="9.8" height="9.8"/>
			<rect x="215.7" y="183.43" class="st2" width="9.8" height="9.81"/>
			<rect x="215.7" y="173.63" class="st2" width="9.8" height="9.8"/>
			<rect x="215.7" y="163.83" class="st2" width="9.8" height="9.8"/>
			<rect x="205.9" y="271.67" class="st3" width="9.8" height="9.8"/>
			<rect x="205.9" y="261.87" class="st3" width="9.8" height="9.8"/>
			<rect x="205.9" y="252.06" class="st3" width="9.8" height="9.81"/>
			<rect x="205.9" y="242.26" class="st3" width="9.8" height="9.8"/>
			<rect x="205.9" y="232.45" class="st4" width="9.8" height="9.81"/>
			<rect x="205.9" y="222.65" class="st4" width="9.8" height="9.8"/>
			<rect x="205.9" y="212.85" class="st3" width="9.8" height="9.8"/>
			<rect x="205.9" y="203.04" class="st2" width="9.8" height="9.81"/>
			<rect x="205.9" y="193.24" class="st2" width="9.8" height="9.8"/>
			<rect x="205.9" y="183.43" class="st2" width="9.8" height="9.81"/>
			<rect x="205.9" y="173.63" class="st2" width="9.8" height="9.8"/>
			<rect x="205.9" y="163.83" class="st2" width="9.8" height="9.8"/>
			<rect x="196.09" y="271.67" class="st3" width="9.81" height="9.8"/>
			<rect x="196.09" y="261.87" class="st3" width="9.81" height="9.8"/>
			<rect x="196.09" y="252.06" class="st3" width="9.81" height="9.81"/>
			<rect x="196.09" y="242.26" class="st3" width="9.81" height="9.8"/>
			<rect x="196.09" y="232.45" class="st3" width="9.81" height="9.81"/>
			<rect x="196.09" y="222.65" class="st3" width="9.81" height="9.8"/>
			<rect x="196.09" y="212.85" class="st3" width="9.81" height="9.8"/>
			<rect x="196.09" y="203.04" class="st2" width="9.81" height="9.81"/>
			<rect x="196.09" y="193.24" class="st2" width="9.81" height="9.8"/>
			<rect x="196.09" y="183.43" class="st2" width="9.81" height="9.81"/>
			<rect x="196.09" y="173.63" class="st2" width="9.81" height="9.8"/>
			<rect x="196.09" y="163.83" class="st2" width="9.81" height="9.8"/>
			<rect x="186.29" y="271.67" class="st3" width="9.8" height="9.8"/>
			<rect x="186.29" y="261.87" class="st3" width="9.8" height="9.8"/>
			<rect x="186.29" y="252.06" class="st3" width="9.8" height="9.81"/>
			<rect x="186.29" y="242.26" class="st3" width="9.8" height="9.8"/>
			<rect x="186.29" y="232.45" class="st3" width="9.8" height="9.81"/>
			<rect x="186.29" y="222.65" class="st3" width="9.8" height="9.8"/>
			<rect x="186.29" y="212.85" class="st2" width="9.8" height="9.8"/>
			<rect x="186.29" y="203.04" class="st2" width="9.8" height="9.81"/>
			<rect x="186.29" y="193.24" class="st2" width="9.8" height="9.8"/>
			<rect x="186.29" y="183.43" class="st2" width="9.8" height="9.81"/>
			<rect x="186.29" y="173.63" class="st2" width="9.8" height="9.8"/>
			<rect x="186.29" y="163.83" class="st2" width="9.8" height="9.8"/>
			<rect x="176.48" y="261.87" class="st3" width="9.81" height="9.8"/>
			<rect x="176.48" y="252.06" class="st3" width="9.81" height="9.81"/>
			<rect x="176.48" y="242.26" class="st3" width="9.81" height="9.8"/>
			<rect x="176.48" y="232.45" class="st3" width="9.81" height="9.81"/>
			<rect x="176.48" y="222.65" class="st3" width="9.81" height="9.8"/>
			<rect x="176.48" y="212.85" class="st2" width="9.81" height="9.8"/>
			<rect x="176.48" y="203.04" class="st2" width="9.81" height="9.81"/>
			<rect x="176.48" y="193.24" class="st2" width="9.81" height="9.8"/>
			<rect x="176.48" y="183.43" class="st2" width="9.81" height="9.81"/>
			<rect x="176.48" y="173.63" class="st2" width="9.81" height="9.8"/>
		</g>
		<g>
		</g>
	</g>
</g>
</svg>
